<svg width="18" height="18" viewBox="0 0 18 18" fill="none" xmlns="http://www.w3.org/2000/svg">
<path d="M3.72006 16.506C3.1234 16.3415 2.57753 16.03 2.13243 15.6C1.68734 15.1699 1.35724 14.6351 1.17236 14.0444" stroke="#696A77" stroke-opacity="0.73" stroke-linecap="round" stroke-linejoin="round"/>
<path d="M14.2925 16.506C14.8891 16.3414 15.4349 16.0299 15.88 15.5998C16.3251 15.1698 16.6552 14.635 16.8402 14.0444" stroke="#696A77" stroke-opacity="0.73" stroke-linecap="round" stroke-linejoin="round"/>
<path d="M7.77539 16.6365H10.2369M10.2369 0.636475H7.77539" stroke="#696A77" stroke-opacity="0.73" stroke-linecap="round" stroke-linejoin="round"/>
<path d="M1.00635 7.40576V9.8673" stroke="#696A77" stroke-opacity="0.73" stroke-linecap="round" stroke-linejoin="round"/>
<path d="M17.0063 7.40576V9.8673" stroke="#696A77" stroke-opacity="0.73" stroke-linecap="round" stroke-linejoin="round"/>
<path d="M3.72006 0.766846C3.1234 0.931302 2.57753 1.24281 2.13243 1.67286C1.68734 2.1029 1.35724 2.63773 1.17236 3.22838" stroke="#696A77" stroke-opacity="0.73" stroke-linecap="round" stroke-linejoin="round"/>
<path d="M14.2925 0.766846C14.8891 0.931302 15.435 1.24281 15.8801 1.67286C16.3252 2.1029 16.6553 2.63773 16.8402 3.22838" stroke="#696A77" stroke-opacity="0.73" stroke-linecap="round" stroke-linejoin="round"/>
<path d="M9.00635 4.94409V12.3287" stroke="#696A77" stroke-opacity="0.73" stroke-linecap="round" stroke-linejoin="round"/>
<path d="M6.54492 9.86719L9.00646 12.3287L11.468 9.86719" stroke="#696A77" stroke-opacity="0.73" stroke-linecap="round" stroke-linejoin="round"/>
</svg>
