<svg width="18" height="18" viewBox="0 0 18 18" fill="none" xmlns="http://www.w3.org/2000/svg">
<path d="M2.23077 3C1.90434 3 1.5913 3.12967 1.36048 3.36048C1.12967 3.5913 1 3.90434 1 4.23077V15.9231C1 16.2495 1.12967 16.5626 1.36048 16.7934C1.5913 17.0241 1.90434 17.1538 2.23077 17.1538H15.7692C16.0956 17.1538 16.4087 17.0241 16.6395 16.7934C16.8703 16.5626 17 16.2495 17 15.9231V4.23077C17 3.90434 16.8703 3.5913 16.6395 3.36048C16.4087 3.12967 16.0956 3 15.7692 3H13.3077" stroke="white" stroke-width="1.6" stroke-linecap="round" stroke-linejoin="round"/>
<path d="M1 7.30762H17" stroke="white" stroke-width="1.6" stroke-linecap="round" stroke-linejoin="round"/>
<path d="M4.69238 1.15381V4.84612" stroke="white" stroke-width="1.6" stroke-linecap="round" stroke-linejoin="round"/>
<path d="M13.3076 1.15381V4.84612" stroke="white" stroke-width="1.6" stroke-linecap="round" stroke-linejoin="round"/>
<path d="M4.69238 3H10.8462" stroke="white" stroke-width="1.6" stroke-linecap="round" stroke-linejoin="round"/>
</svg>
