<svg width="40" height="40" viewBox="0 0 40 40" fill="none" xmlns="http://www.w3.org/2000/svg">
<path d="M16.95 18.3334L15 25.0001L21.6667 23.0501L29.4833 15.2334L24.7667 10.5167L16.95 18.3334Z" fill="#2CA9BC"/>
<path d="M33.3333 6.66664C32.6544 6.04213 31.7554 5.71246 30.8336 5.74995C29.9119 5.78745 29.0427 6.18904 28.4167 6.86664L16.95 18.3333L15 25L21.6667 23.05L33.1333 11.6666C33.4813 11.3555 33.7632 10.9777 33.9623 10.5555C34.1614 10.1333 34.2736 9.6754 34.2923 9.20899C34.3109 8.74259 34.2356 8.2772 34.0709 7.84046C33.9062 7.40372 33.6554 7.00454 33.3333 6.66664Z" stroke="black" stroke-width="3" stroke-linecap="round" stroke-linejoin="round"/>
<path d="M20 5H6.66667C6.22464 5 5.80072 5.17559 5.48816 5.48816C5.17559 5.80072 5 6.22464 5 6.66667V33.3333C5 33.7754 5.17559 34.1993 5.48816 34.5118C5.80072 34.8244 6.22464 35 6.66667 35H33.3333C33.7754 35 34.1993 34.8244 34.5118 34.5118C34.8244 34.1993 35 33.7754 35 33.3333V20" stroke="#2CA9BC" stroke-width="4" stroke-linecap="round" stroke-linejoin="round"/>
</svg>
