<svg width="18" height="19" viewBox="0 0 18 19" fill="none" xmlns="http://www.w3.org/2000/svg">
<path d="M16.3847 8.61536H11.4616C11.1217 8.61536 10.8462 8.89088 10.8462 9.23074V16.6154C10.8462 16.9552 11.1217 17.2307 11.4616 17.2307H16.3847C16.7245 17.2307 17 16.9552 17 16.6154V9.23074C17 8.89088 16.7245 8.61536 16.3847 8.61536Z" stroke="white" stroke-width="1.6" stroke-linecap="round" stroke-linejoin="round"/>
<path d="M16.3847 1.23071H11.4616C11.1217 1.23071 10.8462 1.50623 10.8462 1.8461V4.31994C10.8462 4.65981 11.1217 4.93533 11.4616 4.93533H16.3847C16.7245 4.93533 17 4.65981 17 4.31994V1.8461C17 1.50623 16.7245 1.23071 16.3847 1.23071Z" stroke="white" stroke-width="1.6" stroke-linecap="round" stroke-linejoin="round"/>
<path d="M6.53846 1.23071H1.61538C1.27552 1.23071 1 1.50623 1 1.8461V9.23071C1 9.57058 1.27552 9.8461 1.61538 9.8461H6.53846C6.87833 9.8461 7.15385 9.57058 7.15385 9.23071V1.8461C7.15385 1.50623 6.87833 1.23071 6.53846 1.23071Z" stroke="white" stroke-width="1.6" stroke-linecap="round" stroke-linejoin="round"/>
<path d="M6.53846 13.5261H1.61538C1.27552 13.5261 1 13.8016 1 14.1415V16.6154C1 16.9552 1.27552 17.2307 1.61538 17.2307H6.53846C6.87833 17.2307 7.15385 16.9552 7.15385 16.6154V14.1415C7.15385 13.8016 6.87833 13.5261 6.53846 13.5261Z" stroke="white" stroke-width="1.6" stroke-linecap="round" stroke-linejoin="round"/>
</svg>
