<svg width="30" height="33" viewBox="0 0 30 33" fill="none" xmlns="http://www.w3.org/2000/svg">
<g filter="url(#filter0_d_210_381)">
<path d="M9.8335 6.69226L14.0002 10.8589L18.1668 6.69226" stroke="#1C212D" stroke-linecap="round" stroke-linejoin="round"/>
<path d="M14 0.858887V10.8589" stroke="#1C212D" stroke-linecap="round" stroke-linejoin="round"/>
<path d="M22.3333 7.52551C22.7753 7.52551 23.1993 7.70111 23.5118 8.01366C23.8243 8.32623 24 8.75015 24 9.19218V20.8588C24 21.3008 23.8243 21.7248 23.5118 22.0373C23.1993 22.3498 22.7753 22.5255 22.3333 22.5255H5.66667C5.22463 22.5255 4.80072 22.3498 4.48815 22.0373C4.1756 21.7248 4 21.3008 4 20.8588V9.19218C4 8.75015 4.1756 8.32623 4.48815 8.01366C4.80072 7.70111 5.22463 7.52551 5.66667 7.52551" stroke="#1C212D" stroke-linecap="round" stroke-linejoin="round"/>
<path d="M4 9.62561L14 16.6923L24 9.62561" stroke="#1C212D" stroke-linecap="round" stroke-linejoin="round"/>
</g>
<defs>
<filter id="filter0_d_210_381" x="0.5" y="0.358887" width="29" height="31.6666" filterUnits="userSpaceOnUse" color-interpolation-filters="sRGB">
<feFlood flood-opacity="0" result="BackgroundImageFix"/>
<feColorMatrix in="SourceAlpha" type="matrix" values="0 0 0 0 0 0 0 0 0 0 0 0 0 0 0 0 0 0 127 0" result="hardAlpha"/>
<feOffset dx="1" dy="5"/>
<feGaussianBlur stdDeviation="2"/>
<feComposite in2="hardAlpha" operator="out"/>
<feColorMatrix type="matrix" values="0 0 0 0 0 0 0 0 0 0 0 0 0 0 0 0 0 0 0.3 0"/>
<feBlend mode="normal" in2="BackgroundImageFix" result="effect1_dropShadow_210_381"/>
<feBlend mode="normal" in="SourceGraphic" in2="effect1_dropShadow_210_381" result="shape"/>
</filter>
</defs>
</svg>
