<svg width="18" height="18" viewBox="0 0 18 18" fill="none" xmlns="http://www.w3.org/2000/svg">
<path d="M2.84619 12.5383V10.0767C2.84619 9.75029 2.97587 9.43725 3.20667 9.20643C3.43749 8.97562 3.75054 8.84595 4.07696 8.84595H13.9231C14.2495 8.84595 14.5626 8.97562 14.7934 9.20643C15.0242 9.43725 15.1539 9.75029 15.1539 10.0767V12.5383" stroke="white" stroke-width="2" stroke-linecap="round" stroke-linejoin="round"/>
<path d="M9 5.15381V12.5384" stroke="white" stroke-width="2" stroke-linecap="round" stroke-linejoin="round"/>
<path d="M7.15381 2.69219V3.92296C7.15381 4.60269 7.70485 5.15373 8.38458 5.15373H9.61535C10.2951 5.15373 10.8461 4.60269 10.8461 3.92296V2.69219C10.8461 2.01247 10.2951 1.46143 9.61535 1.46143H8.38458C7.70485 1.46143 7.15381 2.01247 7.15381 2.69219Z" stroke="white" stroke-width="2" stroke-linecap="round" stroke-linejoin="round"/>
<path d="M7.15381 13.7691V14.9999C7.15381 15.6796 7.70485 16.2306 8.38458 16.2306H9.61535C10.2951 16.2306 10.8461 15.6796 10.8461 14.9999V13.7691C10.8461 13.0893 10.2951 12.5383 9.61535 12.5383H8.38458C7.70485 12.5383 7.15381 13.0893 7.15381 13.7691Z" stroke="white" stroke-width="2" stroke-linecap="round" stroke-linejoin="round"/>
<path d="M1 13.7691V14.9999C1 15.6796 1.55103 16.2306 2.23077 16.2306H3.46154C4.14127 16.2306 4.69231 15.6796 4.69231 14.9999V13.7691C4.69231 13.0893 4.14127 12.5383 3.46154 12.5383H2.23077C1.55103 12.5383 1 13.0893 1 13.7691Z" stroke="white" stroke-width="2" stroke-linecap="round" stroke-linejoin="round"/>
<path d="M13.3076 13.7691V14.9999C13.3076 15.6796 13.8586 16.2306 14.5384 16.2306H15.7692C16.4489 16.2306 16.9999 15.6796 16.9999 14.9999V13.7691C16.9999 13.0893 16.4489 12.5383 15.7692 12.5383H14.5384C13.8586 12.5383 13.3076 13.0893 13.3076 13.7691Z" stroke="white" stroke-width="2" stroke-linecap="round" stroke-linejoin="round"/>
</svg>
