<svg width="23" height="26" viewBox="0 0 23 26" fill="none" xmlns="http://www.w3.org/2000/svg">
<path d="M8.7793 24.6365L8.7793 17.3637H1.50657" fill="white"/>
<path d="M8.7793 24.6365L8.7793 17.3637H1.50657" fill="white"/>
<path d="M1.50635 2.81829C1.50635 2.33608 1.69791 1.87362 2.03888 1.53264C2.37986 1.19167 2.84232 1.00011 3.32453 1.00011L19.6882 1.00011C20.1704 1.00011 20.6328 1.19167 20.9738 1.53264C21.3148 1.87362 21.5063 2.33608 21.5063 2.81829L21.5063 22.8183C21.5063 23.3005 21.3148 23.763 20.9738 24.1039C20.6328 24.4449 20.1704 24.6365 19.6882 24.6365H7.86998L1.50635 18.2728L1.50635 2.81829Z" fill="#165F21" fill-opacity="0.45"/>
<path d="M8.7793 17.3637L8.7793 24.6365H7.87021L1.50657 18.2728V17.3637H8.7793Z" fill="white"/>
<path d="M1.50635 2.81829C1.50635 2.33608 1.69791 1.87362 2.03888 1.53264C2.37986 1.19167 2.84232 1.00011 3.32453 1.00011L19.6882 1.00011C20.1704 1.00011 20.6328 1.19167 20.9738 1.53264C21.3148 1.87362 21.5063 2.33608 21.5063 2.81829L21.5063 22.8183C21.5063 23.3005 21.3148 23.763 20.9738 24.1039C20.6328 24.4449 20.1704 24.6365 19.6882 24.6365H7.86998L1.50635 18.2728L1.50635 2.81829Z" stroke="#165F21" stroke-opacity="0.7" stroke-width="1.78571" stroke-linecap="round" stroke-linejoin="round"/>
<path d="M8.7793 24.6365L8.7793 17.3637H1.50657" stroke="#165F21" stroke-opacity="0.7" stroke-width="1.78571" stroke-linecap="round" stroke-linejoin="round"/>
</svg>
