<svg width="22" height="26" viewBox="0 0 22 26" fill="none" xmlns="http://www.w3.org/2000/svg">
<path d="M10.2598 24.2421C9.46108 24.8381 8.5104 25.0994 7.56578 24.9824C6.62118 24.8654 5.73954 24.3774 5.06749 23.5992L4.482 22.9206C4.22232 22.6163 4.07666 22.2058 4.07666 21.7778C4.07666 21.3499 4.22232 20.9392 4.482 20.6349L6.9472 17.7956C7.20708 17.4958 7.55886 17.3274 7.92557 17.3274C8.29229 17.3274 8.64407 17.4958 8.90395 17.7956C9.16645 18.0966 9.52079 18.2654 9.89003 18.2654C10.2593 18.2654 10.6136 18.0966 10.8761 17.7956L14.805 13.2421C15.0647 12.9378 15.2104 12.5272 15.2104 12.0992C15.2104 11.6713 15.0647 11.2606 14.805 10.9564C14.5463 10.6552 14.401 10.2474 14.401 9.82243C14.401 9.39741 14.5463 8.9897 14.805 8.6885L17.1777 5.83136C17.4403 5.53038 17.7946 5.36157 18.1638 5.36157C18.5331 5.36157 18.8875 5.53038 19.1499 5.83136L19.7354 6.50993C20.4188 7.27786 20.8544 8.29422 20.9693 9.38939C21.0844 10.4846 20.8718 11.5923 20.3671 12.5278C17.6805 17.1506 14.2485 21.1283 10.2598 24.2421Z" stroke="#696A77" stroke-width="1.78571" stroke-linecap="round" stroke-linejoin="round"/>
<path d="M11.0149 1.7959C9.6997 1.7959 8.3974 2.09613 7.18235 2.67944C5.96728 3.26276 4.86326 4.11774 3.93329 5.19556C3.00331 6.27338 2.26563 7.55293 1.76234 8.96118C1.25904 10.3694 1 11.8788 1 13.403" stroke="black" stroke-width="1.78571" stroke-linecap="round" stroke-linejoin="round"/>
<path d="M11.015 6.26025C9.38051 6.26025 7.81294 7.01281 6.65715 8.35234C5.50137 9.6919 4.85205 11.5087 4.85205 13.4031" stroke="black" stroke-width="1.78571" stroke-linecap="round" stroke-linejoin="round"/>
</svg>
