<svg width="22" height="26" viewBox="0 0 22 26" fill="none" xmlns="http://www.w3.org/2000/svg">
<path d="M10.2598 24.2906C9.46108 24.8867 8.5104 25.148 7.56578 25.031C6.62118 24.914 5.73954 24.426 5.06749 23.6478L4.482 22.9692C4.22232 22.6649 4.07666 22.2544 4.07666 21.8264C4.07666 21.3985 4.22232 20.9878 4.482 20.6835L6.9472 17.8442C7.20708 17.5444 7.55886 17.376 7.92557 17.376C8.29229 17.376 8.64407 17.5444 8.90395 17.8442C9.16645 18.1452 9.52079 18.314 9.89003 18.314C10.2593 18.314 10.6136 18.1452 10.8761 17.8442L14.805 13.2907C15.0647 12.9864 15.2104 12.5757 15.2104 12.1478C15.2104 11.7199 15.0647 11.3092 14.805 11.0049C14.5463 10.7037 14.401 10.296 14.401 9.87101C14.401 9.446 14.5463 9.03828 14.805 8.73708L17.1777 5.87994C17.4403 5.57896 17.7946 5.41016 18.1638 5.41016C18.5331 5.41016 18.8875 5.57896 19.1499 5.87994L19.7354 6.55851C20.4188 7.32644 20.8544 8.3428 20.9693 9.43798C21.0844 10.5332 20.8718 11.6409 20.3671 12.5764C17.6805 17.1992 14.2485 21.1769 10.2598 24.2906Z" stroke="#696A77" stroke-width="1.78571" stroke-linecap="round" stroke-linejoin="round"/>
<path d="M11.0149 1.84448C9.6997 1.84448 8.3974 2.14471 7.18235 2.72802C5.96728 3.31134 4.86326 4.16632 3.93329 5.24414C3.00331 6.32196 2.26563 7.60152 1.76234 9.00977C1.25904 10.418 1 11.9274 1 13.4516" stroke="black" stroke-width="1.78571" stroke-linecap="round" stroke-linejoin="round"/>
<path d="M11.015 6.30884C9.38051 6.30884 7.81294 7.06139 6.65715 8.40093C5.50137 9.74048 4.85205 11.5573 4.85205 13.4517" stroke="black" stroke-width="1.78571" stroke-linecap="round" stroke-linejoin="round"/>
</svg>
