<svg width="18" height="18" viewBox="0 0 18 18" fill="none" xmlns="http://www.w3.org/2000/svg">
<path d="M6.92773 2.00371C6.92773 2.09454 6.94563 2.18449 6.98039 2.26841C7.01515 2.35233 7.0661 2.42858 7.13033 2.49281C7.19456 2.55704 7.27081 2.60799 7.35473 2.64275C7.43865 2.67751 7.5286 2.6954 7.61943 2.6954C7.71027 2.6954 7.80021 2.67751 7.88413 2.64275C7.96805 2.60799 8.0443 2.55704 8.10853 2.49281C8.17276 2.42858 8.22371 2.35233 8.25847 2.26841C8.29324 2.18449 8.31113 2.09454 8.31113 2.00371C8.31113 1.91287 8.29324 1.82293 8.25847 1.73901C8.22371 1.65509 8.17276 1.57883 8.10853 1.5146C8.0443 1.45037 7.96805 1.39943 7.88413 1.36466C7.80021 1.3299 7.71027 1.31201 7.61943 1.31201C7.5286 1.31201 7.43865 1.3299 7.35473 1.36466C7.27081 1.39943 7.19456 1.45037 7.13033 1.5146C7.0661 1.57883 7.01515 1.65509 6.98039 1.73901C6.94563 1.82293 6.92773 1.91287 6.92773 2.00371Z" stroke="white" stroke-width="1.6"/>
<path d="M15.228 7.5374C15.228 7.72085 15.3009 7.89678 15.4306 8.0265C15.5603 8.15622 15.7363 8.2291 15.9197 8.2291C16.1032 8.2291 16.2791 8.15622 16.4088 8.0265C16.5385 7.89678 16.6114 7.72085 16.6114 7.5374C16.6114 7.35395 16.5385 7.17801 16.4088 7.0483C16.2791 6.91858 16.1032 6.8457 15.9197 6.8457C15.7363 6.8457 15.5603 6.91858 15.4306 7.0483C15.3009 7.17801 15.228 7.35395 15.228 7.5374Z" stroke="white" stroke-width="1.6"/>
<path d="M9.69434 15.8377C9.69434 15.9285 9.71223 16.0185 9.74699 16.1024C9.78175 16.1863 9.8327 16.2626 9.89693 16.3268C9.96116 16.391 10.0374 16.442 10.1213 16.4767C10.2053 16.5115 10.2952 16.5294 10.386 16.5294C10.4769 16.5294 10.5668 16.5115 10.6507 16.4767C10.7347 16.442 10.8109 16.391 10.8751 16.3268C10.9394 16.2626 10.9903 16.1863 11.0251 16.1024C11.0598 16.0185 11.0777 15.9285 11.0777 15.8377C11.0777 15.7469 11.0598 15.6569 11.0251 15.573C10.9903 15.4891 10.9394 15.4128 10.8751 15.3486C10.8109 15.2844 10.7347 15.2334 10.6507 15.1986C10.5668 15.1639 10.4769 15.146 10.386 15.146C10.2952 15.146 10.2053 15.1639 10.1213 15.1986C10.0374 15.2334 9.96116 15.2844 9.89693 15.3486C9.8327 15.4128 9.78175 15.4891 9.74699 15.573C9.71223 15.6569 9.69434 15.7469 9.69434 15.8377Z" stroke="white" stroke-width="1.6"/>
<path d="M1.39404 10.3042C1.39404 10.3951 1.41193 10.485 1.4467 10.5689C1.48146 10.6529 1.53241 10.7291 1.59664 10.7933C1.66087 10.8576 1.73712 10.9085 1.82104 10.9433C1.90496 10.9781 1.9949 10.9959 2.08574 10.9959C2.17657 10.9959 2.26652 10.9781 2.35044 10.9433C2.43436 10.9085 2.51061 10.8576 2.57484 10.7933C2.63907 10.7291 2.69002 10.6529 2.72478 10.5689C2.75954 10.485 2.77744 10.3951 2.77744 10.3042C2.77744 10.1208 2.70456 9.94486 2.57484 9.81514C2.44512 9.68542 2.26919 9.61255 2.08574 9.61255C1.90229 9.61255 1.72635 9.68542 1.59664 9.81514C1.46692 9.94486 1.39404 10.1208 1.39404 10.3042Z" stroke="white" stroke-width="1.6"/>
<path d="M11.4834 0.92334V7.75276" stroke="white" stroke-width="1.6" stroke-linecap="round" stroke-linejoin="round"/>
<path d="M6.51758 10.0938V16.9231" stroke="white" stroke-width="1.6" stroke-linecap="round" stroke-linejoin="round"/>
<path d="M1 6.44067H7.82927" stroke="white" stroke-width="1.6" stroke-linecap="round" stroke-linejoin="round"/>
<path d="M10.1704 11.407H17" stroke="white" stroke-width="1.6" stroke-linecap="round" stroke-linejoin="round"/>
</svg>
