<svg width="20" height="20" viewBox="0 0 20 20" fill="none" xmlns="http://www.w3.org/2000/svg">
<g clip-path="url(#clip0_210_1344)">
<path d="M9.99984 18.3334C14.6022 18.3334 18.3332 14.6025 18.3332 10.0001C18.3332 5.39771 14.6022 1.66675 9.99984 1.66675C5.39746 1.66675 1.6665 5.39771 1.6665 10.0001C1.6665 14.6025 5.39746 18.3334 9.99984 18.3334Z" stroke="#1C274C" stroke-width="2"/>
<path d="M7.5 13.3333C8.20865 13.8585 9.0705 14.1666 10 14.1666C10.9295 14.1666 11.7913 13.8585 12.5 13.3333" stroke="#1C274C" stroke-width="2" stroke-linecap="round"/>
<path d="M13.3332 8.75C13.3332 9.44033 12.9601 10 12.4998 10C12.0396 10 11.6665 9.44033 11.6665 8.75C11.6665 8.05964 12.0396 7.5 12.4998 7.5C12.9601 7.5 13.3332 8.05964 13.3332 8.75Z" fill="#1C274C"/>
<path d="M7.49984 10C7.96007 10 8.33317 9.44036 8.33317 8.75C8.33317 8.05964 7.96007 7.5 7.49984 7.5C7.0396 7.5 6.6665 8.05964 6.6665 8.75C6.6665 9.44036 7.0396 10 7.49984 10Z" fill="#1C274C"/>
</g>
<defs>
<clipPath id="clip0_210_1344">
<rect width="20" height="20" fill="white"/>
</clipPath>
</defs>
</svg>
