<svg width="16" height="17" viewBox="0 0 16 17" fill="none" xmlns="http://www.w3.org/2000/svg">
<path fill-rule="evenodd" clip-rule="evenodd" d="M5.512 1.90616C5.53849 1.87944 5.56999 1.85821 5.60471 1.8437C5.63942 1.82918 5.67666 1.82167 5.71429 1.82159H10.2857C10.3615 1.82159 10.4342 1.85169 10.4877 1.90527C10.5413 1.95885 10.5714 2.03152 10.5714 2.1073V3.4753H5.42857V2.1073C5.42874 2.03187 5.45873 1.95956 5.512 1.90616ZM3.71429 3.4753V2.1073C3.71429 1.57687 3.925 1.06816 4.30007 0.693086C4.67515 0.318013 5.18385 0.1073 5.71429 0.1073H10.2857C10.8161 0.1073 11.3249 0.318013 11.6999 0.693086C12.075 1.06816 12.2857 1.57687 12.2857 2.1073V3.4753H14.2857C14.7404 3.4753 15.1764 3.65591 15.4979 3.9774C15.8194 4.29889 16 4.73493 16 5.18959V14.3324C16 14.7871 15.8194 15.2231 15.4979 15.5446C15.1764 15.8661 14.7404 16.0467 14.2857 16.0467H1.71429C1.48916 16.0467 1.26624 16.0024 1.05826 15.9162C0.85027 15.8301 0.661289 15.7038 0.502103 15.5446C0.180612 15.2231 0 14.7871 0 14.3324L0 5.18959C0 4.73493 0.180612 4.29889 0.502103 3.9774C0.823594 3.65591 1.25963 3.4753 1.71429 3.4753H3.71429ZM3.28571 7.56444C3.28571 7.17016 3.60571 6.85016 4 6.85016H12C12.1894 6.85016 12.3711 6.92541 12.5051 7.05937C12.639 7.19332 12.7143 7.375 12.7143 7.56444C12.7143 7.75388 12.639 7.93556 12.5051 8.06952C12.3711 8.20347 12.1894 8.27873 12 8.27873H4C3.81056 8.27873 3.62888 8.20347 3.49492 8.06952C3.36097 7.93556 3.28571 7.75388 3.28571 7.56444ZM4 11.2433C3.81056 11.2433 3.62888 11.3186 3.49492 11.4525C3.36097 11.5865 3.28571 11.7681 3.28571 11.9576C3.28571 12.147 3.36097 12.3287 3.49492 12.4627C3.62888 12.5966 3.81056 12.6719 4 12.6719H12C12.1894 12.6719 12.3711 12.5966 12.5051 12.4627C12.639 12.3287 12.7143 12.147 12.7143 11.9576C12.7143 11.7681 12.639 11.5865 12.5051 11.4525C12.3711 11.3186 12.1894 11.2433 12 11.2433H4Z" fill="white"/>
</svg>
