<svg width="17" height="17" viewBox="0 0 17 17" fill="none" xmlns="http://www.w3.org/2000/svg">
<path d="M6.19223 7.38447C7.78536 7.38447 9.07685 6.09298 9.07685 4.49985C9.07685 2.90672 7.78536 1.61523 6.19223 1.61523C4.59911 1.61523 3.30762 2.90672 3.30762 4.49985C3.30762 6.09298 4.59911 7.38447 6.19223 7.38447Z" stroke="white" stroke-width="2" stroke-linecap="round" stroke-linejoin="round"/>
<path d="M1 15.4613H11.3846V14.8358C11.3754 13.9563 11.1435 13.0935 10.7105 12.328C10.2774 11.5624 9.65742 10.9192 8.90838 10.4582C8.15933 9.99725 7.30567 9.73368 6.42714 9.69208C6.34882 9.68838 6.27052 9.68644 6.19231 9.68628C6.1141 9.68644 6.0358 9.68838 5.95748 9.69208C5.07895 9.73368 4.22529 9.99725 3.47623 10.4582C2.72719 10.9192 2.1072 11.5624 1.67416 12.328C1.24113 13.0935 1.00919 13.9563 1 14.8358V15.4613Z" stroke="white" stroke-width="2" stroke-linecap="round" stroke-linejoin="round"/>
<path d="M10.8076 7.38447C12.4007 7.38447 13.6922 6.09298 13.6922 4.49985C13.6922 2.90672 12.4007 1.61523 10.8076 1.61523" stroke="white" stroke-width="2" stroke-linecap="round" stroke-linejoin="round"/>
<path d="M13.6922 15.4616H15.9999V14.836C15.9907 13.9565 15.7587 13.0937 15.3257 12.3282C14.8927 11.5626 14.2727 10.9194 13.5236 10.4584C13.0395 10.1605 12.5115 9.94497 11.9614 9.8186" stroke="white" stroke-width="2" stroke-linecap="round" stroke-linejoin="round"/>
</svg>
