<svg width="17" height="17" viewBox="0 0 17 17" fill="none" xmlns="http://www.w3.org/2000/svg">
<path d="M6.19223 7.38447C7.78536 7.38447 9.07685 6.09298 9.07685 4.49985C9.07685 2.90672 7.78536 1.61523 6.19223 1.61523C4.59911 1.61523 3.30762 2.90672 3.30762 4.49985C3.30762 6.09298 4.59911 7.38447 6.19223 7.38447Z" stroke="white" stroke-width="2" stroke-linecap="round" stroke-linejoin="round"/>
<path d="M1 15.4614H11.3846V14.8359C11.3754 13.9564 11.1435 13.0936 10.7105 12.3281C10.2774 11.5626 9.65742 10.9193 8.90838 10.4583C8.15933 9.99737 7.30567 9.7338 6.42714 9.69221C6.34882 9.6885 6.27052 9.68656 6.19231 9.6864C6.1141 9.68656 6.0358 9.6885 5.95748 9.69221C5.07895 9.7338 4.22529 9.99737 3.47623 10.4583C2.72719 10.9193 2.1072 11.5626 1.67416 12.3281C1.24113 13.0936 1.00919 13.9564 1 14.8359V15.4614Z" stroke="white" stroke-width="2" stroke-linecap="round" stroke-linejoin="round"/>
<path d="M10.8076 7.38447C12.4007 7.38447 13.6922 6.09298 13.6922 4.49985C13.6922 2.90672 12.4007 1.61523 10.8076 1.61523" stroke="white" stroke-width="2" stroke-linecap="round" stroke-linejoin="round"/>
<path d="M13.6922 15.4615H15.9999V14.8359C15.9907 13.9564 15.7587 13.0936 15.3257 12.3281C14.8927 11.5625 14.2727 10.9193 13.5236 10.4583C13.0395 10.1603 12.5115 9.94485 11.9614 9.81848" stroke="white" stroke-width="2" stroke-linecap="round" stroke-linejoin="round"/>
</svg>
