<svg width="18" height="19" viewBox="0 0 18 19" fill="none" xmlns="http://www.w3.org/2000/svg">
<path d="M16.9999 13.6921V16.1537C16.9999 16.4801 16.8702 16.7932 16.6394 17.024C16.4087 17.2547 16.0956 17.3844 15.7692 17.3844H13.3076" stroke="white" stroke-width="2" stroke-linecap="round" stroke-linejoin="round"/>
<path d="M13.3076 1.38452H15.7692C16.0956 1.38452 16.4087 1.51419 16.6394 1.74501C16.8702 1.97582 16.9999 2.28887 16.9999 2.61529V5.07683" stroke="white" stroke-width="2" stroke-linecap="round" stroke-linejoin="round"/>
<path d="M1 5.07683V2.61529C1 2.28887 1.12967 1.97582 1.36048 1.74501C1.5913 1.51419 1.90434 1.38452 2.23077 1.38452H4.69231" stroke="white" stroke-width="2" stroke-linecap="round" stroke-linejoin="round"/>
<path d="M4.69231 17.3844H2.23077C1.90434 17.3844 1.5913 17.2547 1.36048 17.024C1.12967 16.7932 1 16.4801 1 16.1537V13.6921" stroke="white" stroke-width="2" stroke-linecap="round" stroke-linejoin="round"/>
<path d="M8.99961 8.769C10.3591 8.769 11.4611 7.66693 11.4611 6.30747C11.4611 4.94801 10.3591 3.84595 8.99961 3.84595C7.64014 3.84595 6.53809 4.94801 6.53809 6.30747C6.53809 7.66693 7.64014 8.769 8.99961 8.769Z" stroke="white" stroke-width="2" stroke-linecap="round" stroke-linejoin="round"/>
<path d="M13.6812 14.3078C13.3632 13.3162 12.7386 12.4513 11.8974 11.8376C11.0561 11.224 10.0418 10.8933 9.0005 10.8933C7.95923 10.8933 6.94487 11.224 6.10364 11.8376C5.26241 12.4513 4.63779 13.3162 4.31982 14.3078H13.6812Z" stroke="white" stroke-width="2" stroke-linecap="round" stroke-linejoin="round"/>
</svg>
