<svg width="16" height="24" viewBox="0 0 16 24" fill="none" xmlns="http://www.w3.org/2000/svg">
<path fill-rule="evenodd" clip-rule="evenodd" d="M8.12501 1.71293C5.89808 1.71293 4.08654 3.52446 4.08654 5.75139V11.5206C4.08654 13.7475 5.89808 15.5591 8.12501 15.5591C10.3519 15.5591 12.1635 13.7475 12.1635 11.5206V5.7514C12.1635 3.52447 10.3519 1.71293 8.12501 1.71293ZM1.77885 9.02047V11.8024C1.77885 15.3008 4.62654 18.1485 8.12501 18.1485C11.6235 18.1485 14.4711 15.3008 14.4711 11.8024V9.02047H15.625V11.8024C15.625 15.7437 12.5688 18.9848 8.70199 19.2804L8.70192 22.2873H11.5865V23.4411H4.66347V22.2873H7.54807L7.54802 19.2804C3.68116 18.9848 0.625 15.7436 0.625 11.8024V9.02047H1.77885ZM8.12501 0.559082C10.9877 0.559082 13.3173 2.8887 13.3173 5.7514V11.5206C13.3173 14.3833 10.9877 16.7129 8.12499 16.7129C5.26231 16.7129 2.93269 14.3833 2.93269 11.5206V5.7514C2.93269 2.8887 5.26231 0.559082 8.12501 0.559082Z" fill="black"/>
</svg>
