<svg width="24" height="24" viewBox="0 0 24 24" fill="none" xmlns="http://www.w3.org/2000/svg">
<path d="M22.25 11.337L12.2035 20.8121C10.9728 21.9729 9.30343 22.625 7.56285 22.625C5.82228 22.625 4.15299 21.9729 2.92221 20.8121C1.69144 19.6514 1 18.077 1 16.4354C1 14.7939 1.69144 13.2195 2.92221 12.0588L12.9688 2.58359C13.7893 1.80974 14.9021 1.375 16.0625 1.375C17.2229 1.375 18.3358 1.80974 19.1563 2.58359C19.9768 3.35744 20.4377 4.407 20.4377 5.50139C20.4377 6.59578 19.9768 7.64535 19.1563 8.41919L9.0988 17.8943C8.68854 18.2813 8.13211 18.4986 7.55193 18.4986C6.97173 18.4986 6.4153 18.2813 6.00504 17.8943C5.59479 17.5074 5.3643 16.9826 5.3643 16.4354C5.3643 15.8883 5.59479 15.3634 6.00504 14.9765L15.2863 6.23343" stroke="#212121" stroke-width="2" stroke-linecap="round" stroke-linejoin="round"/>
</svg>
