<svg width="18" height="20" viewBox="0 0 18 20" fill="none" xmlns="http://www.w3.org/2000/svg">
<path d="M6.62731 3.94035L7.20372 2.4524C7.30093 2.20047 7.47197 1.98378 7.69441 1.83069C7.91686 1.67761 8.18035 1.59528 8.45038 1.59448H9.54959C9.81962 1.59528 10.0831 1.67761 10.3056 1.83069C10.528 1.98378 10.699 2.20047 10.7962 2.4524L11.3727 3.94035L13.3297 5.06636L14.9115 4.82507C15.1749 4.78932 15.443 4.83267 15.6818 4.94963C15.9204 5.06659 16.1189 5.25186 16.252 5.48192L16.7882 6.42026C16.9256 6.65398 16.989 6.92386 16.9698 7.19429C16.9507 7.46472 16.85 7.72299 16.681 7.93502L15.7024 9.18168V11.4337L16.7078 12.6804C16.8768 12.8924 16.9775 13.1507 16.9966 13.4211C17.0158 13.6915 16.9524 13.9614 16.815 14.1951L16.2788 15.1335C16.1457 15.3635 15.9472 15.5488 15.7086 15.6658C15.4698 15.7827 15.2017 15.8261 14.9383 15.7903L13.3565 15.549L11.3995 16.675L10.8231 18.163C10.7258 18.4149 10.5548 18.6316 10.3324 18.7847C10.1099 18.9378 9.84643 19.0201 9.5764 19.0209H8.45038C8.18035 19.0201 7.91686 18.9378 7.69441 18.7847C7.47197 18.6316 7.30093 18.4149 7.20372 18.163L6.62731 16.675L4.67019 15.549L3.0884 15.7903C2.82502 15.8261 2.55695 15.7827 2.31826 15.6658C2.07959 15.5488 1.88106 15.3635 1.74791 15.1335L1.21171 14.1951C1.07431 13.9614 1.01101 13.6915 1.03016 13.4211C1.0493 13.1507 1.15 12.8924 1.31895 12.6804L2.29751 11.4337V9.18168L1.29214 7.93502C1.12319 7.72299 1.02249 7.46472 1.00335 7.19429C0.984204 6.92386 1.0475 6.65398 1.1849 6.42026L1.7211 5.48192C1.85425 5.25186 2.05278 5.06659 2.29145 4.94963C2.53014 4.83267 2.79821 4.78932 3.06159 4.82507L4.64338 5.06636L6.62731 3.94035ZM6.319 10.3077C6.319 10.8379 6.47624 11.3563 6.77082 11.7972C7.06542 12.2381 7.48413 12.5817 7.97401 12.7846C8.46391 12.9875 9.00296 13.0406 9.52302 12.9372C10.0431 12.8337 10.5208 12.5784 10.8957 12.2034C11.2707 11.8285 11.526 11.3508 11.6295 10.8307C11.7329 10.3107 11.6798 9.77162 11.4769 9.28172C11.274 8.79184 10.9303 8.37312 10.4895 8.07853C10.0486 7.78395 9.53023 7.62671 8.99998 7.62671C8.28895 7.62671 7.60702 7.90916 7.10424 8.41195C6.60146 8.91473 6.319 9.59666 6.319 10.3077Z" stroke="white" stroke-width="1.8" stroke-linecap="round" stroke-linejoin="round"/>
</svg>
